<svg width="80" height="80" viewBox="0 0 80 80" fill="none" xmlns="http://www.w3.org/2000/svg">
<g clip-path="url(#clip0_1290_179)">
<path d="M74.2644 32.7435C76.0794 27.2958 75.4544 21.3282 72.5519 16.3732C68.1867 8.77303 59.4116 4.86287 50.8414 6.70303C47.0288 2.40787 41.5512 -0.0346289 35.8086 0.000371058C27.0484 -0.0196289 19.2758 5.62053 16.5806 13.9557C10.953 15.1082 6.09547 18.6308 3.25281 23.6233C-1.14469 31.2035 -0.142187 40.7587 5.73297 47.2588C3.91797 52.7065 4.54297 58.6741 7.44547 63.6291C11.8106 71.2293 20.5858 75.1394 29.1559 73.2993C32.9661 77.5944 38.4461 80.0369 44.1888 79.9994C52.9539 80.0219 60.7291 74.3768 63.4242 66.0341C69.0519 64.8816 73.9094 61.359 76.752 56.3665C81.1447 48.7863 80.1397 39.2387 74.267 32.7385L74.2644 32.7435ZM44.1938 74.7719C40.6863 74.7769 37.2886 73.5494 34.5961 71.3019C34.7186 71.2369 34.9311 71.1194 35.0686 71.0344L50.9989 61.8343C51.8139 61.3718 52.3139 60.5043 52.3089 59.5668V37.1085L59.0416 40.9962C59.1141 41.0312 59.1616 41.1012 59.1716 41.1812V59.7791C59.1616 68.0493 52.4639 74.7544 44.1938 74.7719ZM11.983 61.0141C10.2255 57.9791 9.59297 54.4215 10.1955 50.969C10.313 51.039 10.5205 51.1665 10.668 51.2515L26.5983 60.4516C27.4058 60.9241 28.4058 60.9241 29.2158 60.4516L48.6638 49.2213V56.9965C48.6688 57.0765 48.6313 57.154 48.5688 57.204L32.4659 66.5016C25.2933 70.6318 16.1331 68.1766 11.9855 61.014L11.983 61.0141ZM7.79047 26.2408C9.54047 23.2008 12.3031 20.8757 15.5931 19.6682C15.5931 19.8057 15.5856 20.0482 15.5856 20.2182V38.6212C15.5806 39.5562 16.0806 40.4237 16.8931 40.8862L36.3411 52.114L29.6084 56.0015C29.5409 56.0465 29.4559 56.054 29.3809 56.0215L13.2756 46.7163C6.11797 42.5712 3.66297 33.4135 7.78797 26.2433L7.79047 26.2408ZM63.1066 39.1137L43.6586 27.8833L50.3913 23.9983C50.4588 23.9533 50.5438 23.9458 50.6188 23.9783L66.7241 33.276C73.8942 37.4185 76.3517 46.5913 72.2092 53.7615C70.4567 56.7965 67.6966 59.1216 64.4091 60.3316V41.3787C64.4166 40.4437 63.9191 39.5787 63.1091 39.1137H63.1066ZM69.8067 29.0283C69.6892 28.9558 69.4817 28.8308 69.3342 28.7458L53.4039 19.5457C52.5964 19.0732 51.5964 19.0732 50.7864 19.5457L31.3384 30.7758V23.0007C31.3334 22.9207 31.3709 22.8432 31.4334 22.7932L47.5363 13.503C54.7089 9.36537 63.8791 11.828 68.0142 19.0032C69.7617 22.0333 70.3942 25.5808 69.8017 29.0283H69.8067ZM27.6784 42.8862L20.9433 38.9987C20.8708 38.9637 20.8233 38.8937 20.8133 38.8137V20.2157C20.8183 11.9355 27.5359 5.22537 35.8161 5.23037C39.3186 5.23037 42.7088 6.46037 45.4013 8.70037C45.2788 8.76537 45.0688 8.88287 44.9288 8.96787L28.9984 18.1682C28.1834 18.6307 27.6834 19.4957 27.6884 20.4332L27.6784 42.8812V42.8862ZM31.3359 35.001L39.9986 29.9983L48.6613 34.9985V45.0012L39.9986 50.0013L31.3359 45.0012V35.001Z" fill="white"/>
</g>
<defs>
<clipPath id="clip0_1290_179">
<rect width="80" height="80" fill="white"/>
</clipPath>
</defs>
</svg>
