<svg width="216" height="217" viewBox="0 0 216 217" fill="none" xmlns="http://www.w3.org/2000/svg">
<rect x="10.6191" y="5.49214" width="192.604" height="12.4497" fill="#F0F0F0" fill-opacity="0.4" stroke="#F0F0F0" stroke-width="0.732336"/>
<g clip-path="url(#clip0_1482_229)">
<path d="M9.62798 10.9665L5.71617 4.41207C5.1335 3.43578 5.83693 2.19678 6.97387 2.19678H16.4609C17.5979 2.19678 18.3013 3.43578 17.7186 4.41207L13.8068 10.9665C13.5309 11.4289 13.5309 12.0054 13.8068 12.4678L17.7186 19.0222C18.3013 19.9985 17.5979 21.2375 16.4609 21.2375H6.97388C5.83693 21.2375 5.1335 19.9985 5.71617 19.0222L9.62798 12.4678C9.90393 12.0054 9.90393 11.4289 9.62798 10.9665Z" fill="#F87171"/>
</g>
<path d="M210.515 11.0044L206.028 2.9487C205.769 2.48453 205.28 2.19678 204.748 2.19678H198.668C197.532 2.19678 196.828 3.43578 197.411 4.41207L201.323 10.9665C201.599 11.4289 201.599 12.0054 201.323 12.4678L197.411 19.0222C196.828 19.9985 197.532 21.2375 198.668 21.2375H204.748C205.28 21.2375 205.769 20.9498 206.028 20.4856L210.515 12.4299C210.762 11.9868 210.762 11.4475 210.515 11.0044Z" fill="#F87171"/>
<rect opacity="0.1" x="13.1821" y="41.4346" width="193.337" height="150.861" fill="#D9D9D9" fill-opacity="0.5"/>
<line x1="13.9146" y1="186.437" x2="207.251" y2="186.437" stroke="#0EA5E9" stroke-width="1.46467"/>
<path d="M5.77287 190.797C5.77287 190.569 5.73472 190.365 5.65844 190.185C5.58215 190.006 5.45628 189.846 5.28083 189.705C5.10919 189.56 4.87652 189.426 4.58282 189.304C4.29294 189.178 3.93058 189.054 3.49576 188.932C3.08001 188.814 2.7043 188.684 2.36865 188.543C2.033 188.402 1.74502 188.24 1.50472 188.057C1.26824 187.874 1.08706 187.66 0.961191 187.416C0.835321 187.168 0.772386 186.88 0.772386 186.552C0.772386 186.232 0.841042 185.94 0.978355 185.677C1.11567 185.414 1.30829 185.187 1.55621 184.996C1.80795 184.805 2.10356 184.658 2.44303 184.555C2.78631 184.452 3.16201 184.401 3.57014 184.401C4.15372 184.401 4.6572 184.512 5.08058 184.733C5.50778 184.954 5.83771 185.253 6.07038 185.631C6.30686 186.005 6.4251 186.424 6.4251 186.89H5.72137C5.72137 186.527 5.63555 186.205 5.46391 185.923C5.29609 185.637 5.05197 185.414 4.73158 185.253C4.41499 185.089 4.02785 185.007 3.57014 185.007C3.11243 185.007 2.72719 185.078 2.41442 185.219C2.10547 185.356 1.87089 185.541 1.71069 185.774C1.55431 186.003 1.47611 186.258 1.47611 186.541C1.47611 186.739 1.51426 186.922 1.59054 187.09C1.66683 187.254 1.79079 187.408 1.96243 187.553C2.13789 187.695 2.36865 187.828 2.65472 187.954C2.94079 188.076 3.2936 188.192 3.71317 188.303C4.15562 188.425 4.54849 188.56 4.89178 188.709C5.23506 188.858 5.52494 189.03 5.76142 189.224C5.99791 189.415 6.17718 189.638 6.29923 189.893C6.42129 190.149 6.48232 190.447 6.48232 190.786C6.48232 191.125 6.40985 191.431 6.2649 191.701C6.12378 191.968 5.92353 192.195 5.66416 192.382C5.40861 192.569 5.10537 192.712 4.75446 192.811C4.40737 192.911 4.02785 192.96 3.61591 192.96C3.24593 192.96 2.87785 192.912 2.51168 192.817C2.14552 192.722 1.80986 192.575 1.50472 192.377C1.2034 192.174 0.961191 191.915 0.778107 191.598C0.598837 191.282 0.509202 190.904 0.509202 190.466H1.20721C1.20721 190.817 1.27777 191.112 1.4189 191.352C1.56003 191.593 1.74693 191.787 1.9796 191.936C2.21608 192.085 2.47545 192.193 2.7577 192.262C3.04377 192.327 3.32984 192.359 3.61591 192.359C4.05455 192.359 4.43407 192.295 4.75446 192.165C5.07867 192.035 5.32851 191.854 5.50396 191.621C5.68323 191.385 5.77287 191.11 5.77287 190.797Z" fill="#F9FAFB"/>
<path d="M17.0326 200.627L17.0326 208.958H16.3346L16.3346 200.627H17.0326ZM19.8876 200.627V201.234H13.4854V200.627H19.8876Z" fill="#F9FAFB"/>
<line opacity="0.2" x1="13.9145" y1="41.4346" x2="13.9145" y2="192.296" stroke="#253D55" stroke-width="1.46467"/>
<line opacity="0.2" x1="78.3598" y1="41.4346" x2="78.3598" y2="192.296" stroke="#253D55" stroke-width="1.46467"/>
<line opacity="0.2" x1="142.806" y1="41.4346" x2="142.806" y2="192.296" stroke="#253D55" stroke-width="1.46467"/>
<line opacity="0.2" x1="207.251" y1="41.4346" x2="207.251" y2="192.296" stroke="#253D55" stroke-width="1.46467"/>
<path d="M3.66162 162.27L1.54755 165.932L5.77569 165.932L3.66162 162.27ZM3.66162 165.566L3.29545 165.566L3.29545 177.649L3.66162 177.649L4.02779 177.649L4.02779 165.566L3.66162 165.566Z" fill="#F9FAFB"/>
<path d="M29.2935 214.266L25.6318 212.152L25.6318 216.38L29.2935 214.266ZM25.9979 214.266L25.9979 213.899L13.9144 213.899L13.9144 214.266L13.9144 214.632L25.9979 214.632L25.9979 214.266Z" fill="#F9FAFB"/>
<line x1="16" y1="136.002" x2="206" y2="136.002" stroke="#F87171" stroke-width="2" stroke-linecap="round"/>
<defs>
<clipPath id="clip0_1482_229">
<rect width="23.4347" height="23.4347" fill="white"/>
</clipPath>
</defs>
</svg>
